<svg version="1.1" xmlns="http://www.w3.org/2000/svg" viewBox="-272.38399810791014 -1024.000048828125 4405.24814453125 3916.8001190185546"><desc>Created with Snap</desc><defs><linearGradient x1="-272.38399810791014" y1="-1024.000048828125" x2="4132.86414642334" y2="-1024.000048828125" gradientUnits="userSpaceOnUse" id="linearGradientSl31c7fz1ejz"><stop offset="0%" stop-color="#081c4f"></stop><stop offset="100%" stop-color="#157c79"></stop></linearGradient></defs><g><rect x="-272.38399810791014" y="-1024.000048828125" width="4405.24814453125" height="3916.8001190185546" fill="url('#linearGradientSl31c7fz1ejz')"></rect><g transform="matrix(23.9131,0,0,23.9131,734.5869,368.5216)"><title>artifact</title><desc>Created with Sketch.</desc><g stroke="none" stroke-width="1" fill="none" fill-rule="evenodd"><g transform="translate(0.000000, 6.000000)" fill="#000000" fill-rule="nonzero"><polygon points="32.7402222 56.7022222 0 0 30.3677778 0 43.2977778 46.2633333" fill="#ffffff" style=""></polygon><polygon points="37.7224444 12.4555556 34.5195556 0 100 0 85.2906667 25.3855556" fill="#ffffff" style=""></polygon><polygon points="46.5005556 42.586 39.5017778 17.2004444 65.0058889 23.8434444" fill="#ffffff" style=""></polygon><polygon points="69.7508889 24.911 35.1126667 60.1423333 50.2965556 86.7141111 83.5112222 28.5883333" fill="#ffffff" style=""></polygon></g></g><defs></defs></g><g><g transform="matrix(1.024,0,0,-1.024,0,0)"><path d="M302 0Q288 0 279 9Q271 18 271 30L271 667L333 667L333 30Q333 18 324 9Q315 0 302 0ZM540 643L64 643Q52 643 43 651Q34 659 34 672Q34 684 43 692Q52 700 64 700L540 700Q552 700 561 692Q570 684 570 671Q570 658 561 650Q552 643 540 643ZM1290 522Q1301 522 1310 514Q1320 506 1320 492Q1320 489 1319 485Q1318 481 1317 479L1163 19Q1159 10 1150 4Q1142 -1 1133 0Q1115 1 1106 19L965 351L983 347L858 19Q850 1 831 0Q822 -1 813 4Q804 10 801 19L643 479Q640 486 640 492Q640 505 648 513Q657 522 671 522Q680 522 687 517Q695 512 698 502L840 76L821 77L950 402Q958 421 978 421Q988 421 995 416Q1002 411 1006 402L1143 76L1121 75L1262 502Q1268 522 1290 522ZM1493 490L1493 30Q1493 18 1484 9Q1475 0 1463 0Q1450 0 1441 9Q1433 18 1433 30L1433 490Q1433 502 1441 511Q1450 520 1463 520Q1476 520 1484 511Q1493 502 1493 490ZM1463 587Q1442 587 1431 596Q1421 606 1421 624L1421 634Q1421 652 1432 661Q1444 671 1464 671Q1483 671 1493 661Q1504 652 1504 634L1504 624Q1504 606 1493 596Q1483 587 1463 587ZM1858 523Q1902 523 1940 507Q1978 492 2006 467Q2035 443 2051 415Q2067 388 2067 363L2051 387L2051 480Q2051 493 2059 502Q2068 511 2081 511Q2094 511 2102 502Q2111 493 2111 480L2111 47Q2111 -33 2078 -88Q2045 -143 1988 -172Q1932 -200 1860 -200Q1825 -200 1786 -191Q1748 -182 1720 -168Q1693 -154 1689 -139Q1682 -130 1682 -122Q1683 -113 1691 -107Q1700 -100 1711 -106Q1723 -111 1745 -120Q1754 -123 1771 -129Q1789 -135 1812 -140Q1836 -144 1861 -144Q1951 -144 2001 -93Q2051 -41 2051 43L2051 139L2062 136Q2053 100 2032 73Q2011 46 1983 27Q1955 9 1923 -1Q1891 -10 1859 -10Q1790 -10 1734 25Q1679 60 1647 120Q1615 180 1615 257Q1615 333 1647 393Q1679 454 1734 488Q1789 523 1858 523ZM1864 467Q1810 467 1766 439Q1723 412 1698 364Q1674 317 1674 257Q1674 197 1698 149Q1723 101 1766 73Q1810 46 1864 46Q1919 46 1962 73Q2005 100 2030 147Q2055 195 2055 257Q2055 319 2030 366Q2005 414 1962 440Q1919 467 1864 467ZM2478 523Q2522 523 2560 507Q2598 492 2626 467Q2655 443 2671 415Q2687 388 2687 363L2671 387L2671 480Q2671 493 2679 502Q2688 511 2701 511Q2714 511 2722 502Q2731 493 2731 480L2731 47Q2731 -33 2698 -88Q2665 -143 2608 -172Q2552 -200 2480 -200Q2445 -200 2406 -191Q2368 -182 2340 -168Q2313 -154 2309 -139Q2302 -130 2302 -122Q2303 -113 2311 -107Q2320 -100 2331 -106Q2343 -111 2365 -120Q2374 -123 2391 -129Q2409 -135 2432 -140Q2456 -144 2481 -144Q2571 -144 2621 -93Q2671 -41 2671 43L2671 139L2682 136Q2673 100 2652 73Q2631 46 2603 27Q2575 9 2543 -1Q2511 -10 2479 -10Q2410 -10 2354 25Q2299 60 2267 120Q2235 180 2235 257Q2235 333 2267 393Q2299 454 2354 488Q2409 523 2478 523ZM2484 467Q2430 467 2386 439Q2343 412 2318 364Q2294 317 2294 257Q2294 197 2318 149Q2343 101 2386 73Q2430 46 2484 46Q2539 46 2582 73Q2625 100 2650 147Q2675 195 2675 257Q2675 319 2650 366Q2625 414 2582 440Q2539 467 2484 467ZM3116 -10Q3039 -10 2980 23Q2921 56 2888 115Q2855 174 2855 253Q2855 338 2888 398Q2922 458 2975 490Q3029 523 3089 523Q3133 523 3174 507Q3216 492 3248 461Q3280 431 3300 387Q3320 343 3321 285Q3321 273 3312 264Q3303 256 3291 256L2890 256L2878 310L3272 310L3259 298L3259 318Q3254 365 3228 398Q3202 431 3165 448Q3129 465 3089 465Q3059 465 3027 453Q2996 441 2970 415Q2945 390 2929 350Q2913 311 2913 257Q2913 198 2937 150Q2961 102 3006 74Q3051 46 3115 46Q3149 46 3177 56Q3205 66 3226 82Q3248 99 3262 117Q3273 126 3283 126Q3294 126 3301 118Q3309 110 3309 100Q3309 88 3299 79Q3269 43 3221 16Q3173 -10 3116 -10ZM3475 0Q3461 0 3453 9Q3445 18 3445 30L3445 478Q3445 490 3453 499Q3462 508 3475 508Q3488 508 3496 499Q3505 490 3505 478L3505 328L3490 325Q3493 360 3507 394Q3522 429 3547 458Q3572 487 3606 505Q3641 523 3684 523Q3702 523 3719 515Q3736 508 3736 491Q3736 476 3728 468Q3720 460 3709 460Q3700 460 3689 465Q3679 470 3662 470Q3634 470 3606 453Q3578 437 3555 409Q3532 381 3518 346Q3505 312 3505 277L3505 30Q3505 18 3496 9Q3487 0 3475 0Z" fill="#ffffff" style=""></path></g></g></g></svg>